<svg width="18" height="18" viewBox="0 0 18 18" fill="none" xmlns="http://www.w3.org/2000/svg">
<path d="M15.3703 2.6168C14.5415 1.78374 13.5544 1.12331 12.4665 0.67404C11.3786 0.224771 10.2117 -0.00434341 9.0339 6.2353e-05C4.09882 6.2353e-05 0.0768458 4.0028 0.0723255 8.91678C0.0723255 10.4907 0.485937 12.0218 1.26683 13.3774L0 18L4.75088 16.7603C6.06459 17.4738 7.53739 17.8471 9.0339 17.8459H9.03842C13.9746 17.8459 17.9955 13.8431 18 8.92466C18.001 7.75248 17.7691 6.59168 17.3176 5.5091C16.866 4.42653 16.205 3.44356 15.3703 2.6168ZM9.0339 16.3361C7.69947 16.3351 6.38976 15.9777 5.24133 15.3011L4.97011 15.1391L2.15168 15.8749L2.90432 13.1378L2.72803 12.8554C1.98195 11.6745 1.58737 10.3073 1.59003 8.91228C1.59003 4.83305 4.93169 1.50531 9.03842 1.50531C10.0168 1.50356 10.9858 1.69462 11.8896 2.06746C12.7935 2.4403 13.6142 2.98756 14.3046 3.67767C14.9972 4.36521 15.5464 5.18241 15.9203 6.08216C16.2942 6.98191 16.4856 7.94644 16.4834 8.92016C16.4789 13.014 13.1372 16.3361 9.0339 16.3361ZM13.1192 10.7854C12.8965 10.674 11.797 10.1352 11.5902 10.0587C11.3845 9.98553 11.2342 9.94728 11.0873 10.17C10.937 10.3917 10.5075 10.8968 10.3787 11.0419C10.2499 11.1915 10.1165 11.2084 9.89277 11.0981C9.67014 10.9856 8.94801 10.7516 8.09367 9.99003C7.42692 9.3994 6.98054 8.66816 6.84719 8.44653C6.71836 8.22378 6.83475 8.10453 6.94663 7.99316C7.04495 7.89416 7.16926 7.73216 7.28114 7.60391C7.39415 7.47566 7.43144 7.38116 7.5049 7.23266C7.57835 7.08191 7.54332 6.95366 7.48794 6.84229C7.43144 6.73091 6.98506 5.63179 6.79633 5.18854C6.61552 4.75092 6.43131 4.81167 6.29344 4.80605C6.16461 4.79817 6.01431 4.79817 5.86401 4.79817C5.75052 4.80105 5.63885 4.82721 5.53598 4.87502C5.43312 4.92284 5.34127 4.99127 5.2662 5.07604C5.06052 5.29879 4.48531 5.83767 4.48531 6.93679C4.48531 8.03591 5.28767 9.09228 5.40068 9.24191C5.51143 9.39153 6.97602 11.6404 9.22375 12.6079C9.75489 12.8385 10.173 12.9746 10.4996 13.0781C11.0364 13.2491 11.5212 13.2233 11.9077 13.1681C12.3371 13.1029 13.231 12.6281 13.4198 12.1073C13.6051 11.5853 13.6051 11.1398 13.5486 11.0464C13.4932 10.9519 13.3429 10.8968 13.1192 10.7854Z" fill="#1E1E1E"/>
</svg>
