<svg width="24" height="24" viewBox="0 0 24 24" fill="none" xmlns="http://www.w3.org/2000/svg">
<g clip-path="url(#clip0_122_557)">
<rect width="24" height="24" fill="#F3F4F5"/>
<path d="M15 4.5C15.3978 4.5 15.7794 4.65804 16.0607 4.93934C16.342 5.22064 16.5 5.60218 16.5 6V18C16.5 18.3978 16.342 18.7794 16.0607 19.0607C15.7794 19.342 15.3978 19.5 15 19.5H9C8.60218 19.5 8.22064 19.342 7.93934 19.0607C7.65804 18.7794 7.5 18.3978 7.5 18V6C7.5 5.60218 7.65804 5.22064 7.93934 4.93934C8.22064 4.65804 8.60218 4.5 9 4.5H15ZM9 3C8.20435 3 7.44129 3.31607 6.87868 3.87868C6.31607 4.44129 6 5.20435 6 6V18C6 18.7956 6.31607 19.5587 6.87868 20.1213C7.44129 20.6839 8.20435 21 9 21H15C15.7956 21 16.5587 20.6839 17.1213 20.1213C17.6839 19.5587 18 18.7956 18 18V6C18 5.20435 17.6839 4.44129 17.1213 3.87868C16.5587 3.31607 15.7956 3 15 3H9Z" fill="#1E1E1E"/>
<path d="M12 18C12.3978 18 12.7794 17.842 13.0607 17.5607C13.342 17.2794 13.5 16.8978 13.5 16.5C13.5 16.1022 13.342 15.7206 13.0607 15.4393C12.7794 15.158 12.3978 15 12 15C11.6022 15 11.2206 15.158 10.9393 15.4393C10.658 15.7206 10.5 16.1022 10.5 16.5C10.5 16.8978 10.658 17.2794 10.9393 17.5607C11.2206 17.842 11.6022 18 12 18ZM2.3985 6.087C2.48558 6.13308 2.56274 6.19586 2.62555 6.27176C2.68836 6.34766 2.73561 6.43519 2.76458 6.52936C2.79355 6.62352 2.80369 6.72248 2.79441 6.82056C2.78513 6.91864 2.75662 7.01394 2.7105 7.101C1.91475 8.61132 1.49925 10.2929 1.5 12C1.5 13.77 1.938 15.438 2.7105 16.899C2.80359 17.0748 2.82302 17.2805 2.76451 17.4706C2.706 17.6608 2.57434 17.8199 2.3985 17.913C2.22266 18.0061 2.01705 18.0255 1.82688 17.967C1.63672 17.9085 1.47759 17.7768 1.3845 17.601C0.474365 15.8744 -0.000870639 13.9518 1.1974e-06 12C1.1974e-06 9.9795 0.501001 8.0715 1.3845 6.399C1.43058 6.31192 1.49336 6.23476 1.56926 6.17195C1.64516 6.10914 1.7327 6.0619 1.82686 6.03292C1.92103 6.00395 2.01998 5.99381 2.11806 6.00309C2.21615 6.01237 2.31144 6.04088 2.3985 6.087ZM21.6015 6.087C21.6886 6.04088 21.7839 6.01237 21.8819 6.00309C21.98 5.99381 22.079 6.00395 22.1731 6.03292C22.2673 6.0619 22.3548 6.10914 22.4307 6.17195C22.5066 6.23476 22.5694 6.31192 22.6155 6.399C23.5256 8.12562 24.0009 10.0482 24 12C24.0009 13.9518 23.5256 15.8744 22.6155 17.601C22.5224 17.7768 22.3633 17.9085 22.1731 17.967C21.983 18.0255 21.7773 18.0061 21.6015 17.913C21.4257 17.8199 21.294 17.6608 21.2355 17.4706C21.177 17.2805 21.1964 17.0748 21.2895 16.899C22.0852 15.3887 22.5007 13.7071 22.5 12C22.5 10.23 22.062 8.562 21.2895 7.101C21.2434 7.01394 21.2149 6.91864 21.2056 6.82056C21.1963 6.72248 21.2064 6.62352 21.2354 6.52936C21.2644 6.43519 21.3116 6.34766 21.3745 6.27176C21.4373 6.19586 21.5144 6.13308 21.6015 6.087ZM4.5855 8.301C4.67733 8.3368 4.7612 8.39036 4.83232 8.4586C4.90343 8.52684 4.9604 8.60843 4.99997 8.6987C5.03953 8.78897 5.06091 8.88616 5.06289 8.9847C5.06487 9.08324 5.04741 9.18121 5.0115 9.273C4.67288 10.1423 4.49942 11.0671 4.5 12C4.5 12.963 4.68 13.8825 5.01 14.727C5.05186 14.8197 5.07442 14.9199 5.07632 15.0216C5.07822 15.1233 5.05941 15.2244 5.02104 15.3186C4.98267 15.4128 4.92554 15.4982 4.85313 15.5696C4.78071 15.641 4.69452 15.697 4.59981 15.734C4.50509 15.7711 4.40382 15.7885 4.30216 15.7852C4.2005 15.782 4.10057 15.758 4.00845 15.7149C3.91633 15.6718 3.83395 15.6103 3.76631 15.5344C3.69867 15.4584 3.64719 15.3695 3.615 15.273C3.20818 14.2298 2.99961 13.1198 3 12C3 10.8465 3.2175 9.7425 3.615 8.727C3.68733 8.54191 3.83015 8.39308 4.01212 8.31321C4.19408 8.23334 4.4003 8.22895 4.5855 8.301ZM19.4145 8.301C19.5063 8.26509 19.6043 8.24763 19.7028 8.24961C19.8013 8.25159 19.8985 8.27297 19.9888 8.31253C20.0791 8.3521 20.1607 8.40907 20.2289 8.48018C20.2971 8.5513 20.3507 8.63517 20.3865 8.727C20.7825 9.7425 21 10.8465 21 12C21 13.1535 20.7825 14.2575 20.385 15.273C20.3059 15.4482 20.1625 15.5864 19.9844 15.6589C19.8063 15.7315 19.6072 15.7329 19.4281 15.6628C19.249 15.5927 19.1037 15.4565 19.0222 15.2824C18.9407 15.1082 18.9291 14.9094 18.99 14.727C19.32 13.8825 19.5 12.963 19.5 12C19.5 11.037 19.32 10.1175 18.99 9.273C18.9174 9.08781 18.9213 8.88137 19.0009 8.69908C19.0806 8.5168 19.2293 8.3736 19.4145 8.301Z" fill="#1E1E1E"/>
</g>
<defs>
<clipPath id="clip0_122_557">
<rect width="24" height="24" fill="white"/>
</clipPath>
</defs>
</svg>
