<svg width="16" height="17" viewBox="0 0 16 17" fill="none" xmlns="http://www.w3.org/2000/svg">
<path d="M7.45263 16.6724C7.52649 16.7384 7.61446 16.7899 7.71109 16.8237C7.80772 16.8575 7.91096 16.8729 8.0144 16.869C8.11424 16.8703 8.21338 16.8536 8.30609 16.8198C8.3988 16.7861 8.48325 16.736 8.55456 16.6724L15.6415 10.6573C15.7179 10.5895 15.7787 10.5085 15.8202 10.419C15.8617 10.3296 15.883 10.2334 15.883 10.1363C15.883 10.0392 15.8617 9.94313 15.8202 9.85366C15.7787 9.7642 15.7179 9.68319 15.6415 9.61543C15.4882 9.47974 15.2828 9.40382 15.0689 9.40382C14.8551 9.40382 14.6496 9.47974 14.4964 9.61543L8.83545 14.4315V1.49698C8.82466 1.31954 8.74089 1.15229 8.60078 1.02846C8.46067 0.904635 8.27448 0.8333 8.07922 0.828635C7.97243 0.826008 7.86615 0.84288 7.76664 0.878253C7.66714 0.913627 7.57645 0.966784 7.49991 1.03459C7.42337 1.10239 7.36254 1.18346 7.32102 1.273C7.2795 1.36255 7.25813 1.45876 7.25817 1.55595V14.5887L1.59726 9.55646C1.43493 9.45846 1.23958 9.41617 1.04613 9.43715C0.852679 9.45813 0.673732 9.54101 0.541266 9.67098C0.408801 9.80095 0.331448 9.96953 0.323032 10.1466C0.314617 10.3237 0.375686 10.4977 0.495327 10.6376L7.45263 16.6724Z" fill="#4B8BC8"/>
</svg>
