<svg width="192" height="77" viewBox="0 0 192 77" fill="none" xmlns="http://www.w3.org/2000/svg">
<g clip-path="url(#clip0_122_529)">
<mask id="mask0_122_529" style="mask-type:luminance" maskUnits="userSpaceOnUse" x="0" y="0" width="77" height="77">
<path d="M32.7768 36.3138C32.6162 36.4104 32.4556 36.4891 32.2915 36.5822C26.0209 40.3463 22.5127 42.3428 18.1586 43.5701C7.8623 46.4648 0 39.7165 0 39.7165C8.92583 53.6316 24.8146 50.2718 37.2629 44.5648C44.3151 56.7159 40.0503 62.931 38.248 67.1138C36.4135 71.3753 29.9431 76.9964 29.9431 76.9964C48.4443 70.5595 48.7691 54.3079 48.0625 49.7244C47.6663 47.1446 46.7598 43.8707 45.3572 40.4107C57.0918 34.4639 62.9448 38.7684 66.9491 40.6755C71.139 42.6541 76.5209 49.3344 76.5209 49.3344C70.7393 30.5817 54.5436 29.6944 49.954 30.249C47.5271 30.5424 44.4864 31.2508 41.2387 32.3994C41.2066 32.3493 41.178 32.2956 41.1423 32.2491C37.1773 26.0877 35.0645 22.6456 33.6976 18.3269C30.4642 8.1079 36.9239 0 36.9239 0C23.7868 9.11691 27.0166 24.2235 32.7768 36.3138Z" fill="white"/>
</mask>
<g mask="url(#mask0_122_529)">
<path d="M76.5209 0H0V77H76.5209V0Z" fill="url(#paint0_linear_122_529)"/>
</g>
<path d="M82.2133 61.0382V26.8462H103.381L101.928 30.8823L87.1455 30.9037V40.9116L102.285 40.8901L100.829 45.3663H86.9564V56.5549H104.055L102.602 61.0382H82.2133Z" fill="#101010"/>
<path d="M119.184 60.795L108.202 27.0896H113.377L119.587 47.2771C120.294 49.5634 120.911 51.8284 121.446 54.0682C121.871 52.2935 122.467 50.1574 123.238 47.6563L129.687 27.0932H134.726L123.745 60.7986H119.184V60.795Z" fill="#101010"/>
<path d="M158.434 57.639C154.095 62.1831 147.146 61.5534 147.146 61.5534C144.141 61.5534 141.746 60.6875 139.958 58.9521C138.163 57.2168 137.267 54.8803 137.267 51.9391C137.267 49.9926 137.688 48.268 138.527 46.7652C139.366 45.2624 140.519 44.0888 141.975 43.2444C143.431 42.4 145.64 41.7738 148.606 41.3659C152.585 40.8149 155.494 40.1494 157.353 39.3729L157.385 37.9095C157.385 35.6052 156.957 33.9879 156.093 33.0577C154.883 31.7016 153.01 31.0217 150.49 31.0217C148.21 31.0217 146.511 31.4761 145.387 32.3778C144.262 33.2831 143.427 34.9791 142.899 37.4623L138.095 36.7073C138.78 33.0863 140.162 30.4528 142.26 28.7998C144.341 27.1467 147.328 26.3237 151.222 26.3237C154.245 26.3237 156.629 26.8676 158.345 27.9589C160.073 29.0466 161.158 30.3956 161.611 32.0057C162.064 33.6123 162.289 35.963 162.289 39.0509V46.665C162.289 46.665 162.674 53.1914 158.427 57.6354M157.36 43.8777C155.572 44.7257 152.91 45.4485 149.377 46.0389C147.324 46.3788 145.883 46.7652 145.069 47.1982C144.248 47.6311 143.609 48.2465 143.16 49.0337C142.706 49.828 142.478 50.744 142.478 51.7853C142.478 53.3918 142.999 54.6763 144.034 55.6353C145.072 56.6013 146.518 57.0844 148.349 57.0844C150.18 57.0844 151.679 56.655 153.106 55.782C154.53 54.9125 155.594 53.7603 156.304 52.3112C157.01 50.8585 157.364 48.7511 157.364 45.9816V43.8849L157.36 43.8777Z" fill="#101010"/>
<path d="M168.035 50.7012L172.906 49.8138C173.192 52.1968 173.981 53.9608 175.258 55.1201C176.536 56.2794 178.231 56.859 180.351 56.859C182.471 56.859 184.098 56.3581 185.258 55.3491C186.415 54.3437 186.996 53.0699 186.996 51.5241C186.996 50.1895 186.5 49.159 185.505 48.4184C184.816 47.9103 183.16 47.2734 180.533 46.5077C176.729 45.3842 174.188 44.436 172.906 43.6524C171.625 42.8724 170.629 41.824 169.923 40.5109C169.223 39.2013 168.863 37.7092 168.863 36.0347C168.863 33.1579 169.826 30.8214 171.746 29.0217C173.67 27.2219 176.329 26.3274 179.737 26.3274C181.882 26.3274 183.767 26.6959 185.39 27.4366C187.011 28.1737 188.256 29.172 189.123 30.4207C189.976 31.6659 190.58 33.4585 190.904 35.7842L186.133 36.5464C185.69 32.8645 183.606 31.0218 179.866 31.0218C177.742 31.0218 176.165 31.4297 175.123 32.2419C174.088 33.0542 173.567 34.0954 173.567 35.3513C173.567 36.6072 174.066 37.5768 175.062 38.2924C175.658 38.7147 177.425 39.3909 180.38 40.3212C184.423 41.5521 187.046 42.5289 188.235 43.2624C189.42 43.9923 190.348 44.9906 191.008 46.2536C191.665 47.5131 191.996 49.0088 191.996 50.7441C191.996 53.9715 190.929 56.58 188.799 58.5694C186.668 60.5623 183.756 61.557 180.062 61.557C173.149 61.557 169.138 57.9396 168.031 50.7012" fill="#101010"/>
<path d="M82.274 67.8794H83.7587V75.8835H82.274V67.8794Z" fill="black"/>
<path d="M94.0906 67.8794V75.8835H92.8701L88.4696 70.4663V75.8835H86.9992V67.8794H88.2198L92.6202 73.2966V67.8794H94.0906Z" fill="black"/>
<path d="M98.9372 69.1355H96.2927V67.876H103.066V69.1355H100.422V75.8801H98.9372V69.1355Z" fill="black"/>
<path d="M111.25 74.6349V75.8801H105.261V67.876H111.089V69.1211H106.746V71.2H110.6V72.4237H106.746V74.6314H111.25V74.6349Z" fill="black"/>
<path d="M119.212 75.8801L117.581 73.5365C117.513 73.5436 117.41 73.5472 117.274 73.5472H115.472V75.8801H113.987V67.876H117.271C117.963 67.876 118.563 67.9905 119.077 68.2195C119.59 68.4485 119.983 68.7741 120.258 69.2034C120.533 69.6292 120.668 70.1373 120.668 70.7241C120.668 71.3109 120.522 71.8476 120.229 72.2806C119.937 72.7171 119.516 73.0391 118.969 73.2502L120.804 75.8801H119.209H119.212ZM118.673 69.5469C118.338 69.275 117.849 69.1355 117.203 69.1355H115.472V72.3235H117.203C117.849 72.3235 118.341 72.184 118.673 71.9049C119.005 71.6258 119.176 71.2322 119.176 70.7205C119.176 70.2089 119.009 69.8189 118.673 69.5434V69.5469Z" fill="black"/>
<path d="M130.501 67.8794V75.8835H129.28L124.88 70.4663V75.8835H123.409V67.8794H124.63L129.03 73.2966V67.8794H130.501Z" fill="black"/>
<path d="M138.905 74.0301H134.915L134.13 75.8835H132.603L136.193 67.8794H137.653L141.257 75.8835H139.705L138.905 74.0301ZM138.413 72.8636L136.907 69.3643L135.411 72.8636H138.409H138.413Z" fill="black"/>
<path d="M144.573 69.1355H141.928V67.876H148.702V69.1355H146.057V75.8801H144.573V69.1355Z" fill="black"/>
<path d="M150.9 67.8794H152.385V75.8835H150.9V67.8794Z" fill="black"/>
<path d="M157.15 75.465C156.497 75.1108 155.983 74.6206 155.611 73.9908C155.24 73.3611 155.055 72.6598 155.055 71.8833C155.055 71.1069 155.24 70.402 155.611 69.7723C155.986 69.1425 156.497 68.6523 157.15 68.2981C157.803 67.9439 158.538 67.7686 159.352 67.7686C160.165 67.7686 160.901 67.9439 161.554 68.2981C162.207 68.6523 162.721 69.1425 163.092 69.7687C163.463 70.3949 163.652 71.0997 163.652 71.8833C163.652 72.6669 163.467 73.3718 163.092 73.998C162.721 74.6241 162.207 75.1143 161.554 75.4686C160.901 75.8228 160.165 75.9981 159.352 75.9981C158.538 75.9981 157.806 75.8228 157.15 75.4686V75.465ZM160.786 74.3343C161.215 74.0946 161.547 73.7582 161.789 73.3289C162.032 72.8995 162.153 72.4165 162.153 71.8833C162.153 71.3502 162.032 70.8672 161.789 70.4378C161.547 70.0084 161.211 69.6721 160.786 69.4288C160.362 69.189 159.883 69.071 159.348 69.071C158.813 69.071 158.338 69.1926 157.91 69.4288C157.485 69.6685 157.15 70.0048 156.907 70.4378C156.664 70.8672 156.543 71.3502 156.543 71.8833C156.543 72.4165 156.664 72.8995 156.907 73.3289C157.15 73.7582 157.485 74.0946 157.91 74.3343C158.338 74.574 158.816 74.6921 159.348 74.6921C159.88 74.6921 160.358 74.5705 160.786 74.3343Z" fill="black"/>
<path d="M173.399 67.8794V75.8835H172.178L167.778 70.4663V75.8835H166.307V67.8794H167.528L171.928 73.2966V67.8794H173.399Z" fill="black"/>
<path d="M181.804 74.0301H177.814L177.028 75.8835H175.501L179.091 67.8794H180.551L184.156 75.8835H182.603L181.804 74.0301ZM181.315 72.8636L179.809 69.3643L178.313 72.8636H181.311H181.315Z" fill="black"/>
<path d="M186.25 67.8794H187.735V74.624H191.911V75.8835H186.254V67.8794H186.25Z" fill="black"/>
</g>
<defs>
<linearGradient id="paint0_linear_122_529" x1="0.114812" y1="39.0486" x2="76.5758" y2="39.0486" gradientUnits="userSpaceOnUse">
<stop stop-color="#F9ED1F"/>
<stop offset="0.06" stop-color="#F6CB2F"/>
<stop offset="0.22" stop-color="#EF7E56"/>
<stop offset="0.34" stop-color="#EB4572"/>
<stop offset="0.43" stop-color="#E82383"/>
<stop offset="0.48" stop-color="#E7168A"/>
<stop offset="0.58" stop-color="#C81C8A"/>
<stop offset="0.79" stop-color="#7B2B8C"/>
<stop offset="1" stop-color="#293C8F"/>
</linearGradient>
<clipPath id="clip0_122_529">
<rect width="192" height="77" fill="white"/>
</clipPath>
</defs>
</svg>
